<?xml version="1.0" encoding="UTF-8"?>
<svg xmlns="http://www.w3.org/2000/svg" xmlns:xlink="http://www.w3.org/1999/xlink" width="205.8pt" height="205.9pt" viewBox="0 0 205.8 205.9" version="1.1">
<defs>
<clipPath id="clip1">
  <path d="M 0 0 L 205.800781 0 L 205.800781 205.898438 L 0 205.898438 Z M 0 0 "/>
</clipPath>
</defs>
<g id="surface1">
<path style=" stroke:none;fill-rule:evenodd;fill:rgb(0%,33.714294%,63.867188%);fill-opacity:1;" d="M 152.339844 71.523438 C 154.628906 77.445313 155.878906 83.878906 155.878906 90.605469 C 155.878906 97.089844 154.714844 103.300781 152.589844 109.042969 L 53.085938 109.042969 C 50.957031 103.300781 49.789063 97.089844 49.789063 90.605469 C 49.789063 83.878906 51.042969 77.445313 53.332031 71.523438 Z M 60.703125 113.984375 C 61.101563 113.90625 61.503906 113.847656 61.898438 113.828125 C 62.839844 113.785156 63.722656 113.960938 64.488281 114.550781 C 65.535156 115.359375 66.433594 115.671875 67.3125 115.636719 C 68.246094 115.59375 69.253906 115.171875 70.417969 114.523438 C 71.003906 114.199219 71.792969 114.015625 72.621094 114 C 72.964844 113.992188 73.316406 114.015625 73.664063 114.066406 L 73.664063 116.210938 C 73.339844 116.132813 72.992188 116.101563 72.664063 116.105469 C 72.171875 116.117188 71.730469 116.210938 71.433594 116.375 C 70.003906 117.164063 68.730469 117.683594 67.402344 117.742188 C 66.023438 117.800781 64.679688 117.363281 63.203125 116.21875 C 62.890625 115.980469 62.472656 115.914063 61.996094 115.933594 L 61.992188 115.933594 C 61.597656 115.953125 61.15625 116.035156 60.703125 116.144531 Z M 134.902344 132.859375 C 133.183594 134.164063 131.382813 135.367188 129.507813 136.460938 C 129.253906 136.507813 128.996094 136.535156 128.734375 136.546875 C 127.355469 136.605469 126.011719 136.167969 124.535156 135.027344 C 124.222656 134.785156 123.804688 134.71875 123.328125 134.738281 L 123.324219 134.738281 C 122.929688 134.757813 122.488281 134.839844 122.03125 134.949219 L 122.03125 132.789063 C 122.433594 132.710938 122.835938 132.652344 123.230469 132.632813 C 124.171875 132.589844 125.058594 132.765625 125.824219 133.355469 C 126.867188 134.164063 127.765625 134.476563 128.644531 134.441406 C 129.578125 134.398438 130.585938 133.976563 131.753906 133.328125 C 132.339844 133.003906 133.128906 132.820313 133.953125 132.804688 C 134.265625 132.800781 134.589844 132.816406 134.902344 132.859375 Z M 67.613281 130.265625 C 66.378906 129.167969 65.203125 128.015625 64.078125 126.8125 C 64.214844 126.890625 64.355469 126.984375 64.488281 127.089844 C 65.535156 127.898438 66.433594 128.210938 67.3125 128.171875 C 68.246094 128.132813 69.253906 127.707031 70.417969 127.0625 C 71.003906 126.734375 71.792969 126.554688 72.621094 126.535156 C 72.964844 126.53125 73.316406 126.550781 73.664063 126.601563 L 73.664063 128.746094 C 73.339844 128.667969 72.992188 128.636719 72.664063 128.644531 C 72.171875 128.652344 71.730469 128.746094 71.433594 128.910156 C 70.085938 129.660156 68.863281 130.164063 67.613281 130.265625 Z M 60.703125 120.253906 C 61.101563 120.171875 61.503906 120.117188 61.898438 120.097656 C 62.839844 120.050781 63.722656 120.226563 64.488281 120.820313 C 65.535156 121.628906 66.433594 121.941406 67.3125 121.902344 C 68.246094 121.863281 69.253906 121.4375 70.417969 120.792969 C 71.003906 120.46875 71.792969 120.285156 72.621094 120.269531 C 72.964844 120.261719 73.316406 120.28125 73.664063 120.332031 L 73.664063 122.476563 C 73.339844 122.402344 72.992188 122.367188 72.664063 122.375 C 72.171875 122.386719 71.730469 122.476563 71.433594 122.644531 C 70.003906 123.433594 68.730469 123.953125 67.402344 124.007813 C 66.023438 124.070313 64.679688 123.632813 63.203125 122.488281 C 62.890625 122.25 62.472656 122.179688 61.996094 122.203125 L 61.992188 122.203125 C 61.597656 122.222656 61.15625 122.304688 60.703125 122.410156 Z M 76.300781 113.984375 C 76.703125 113.90625 77.101563 113.847656 77.496094 113.828125 C 78.441406 113.785156 79.328125 113.960938 80.089844 114.550781 C 81.136719 115.359375 82.035156 115.671875 82.914063 115.636719 C 83.847656 115.59375 84.847656 115.171875 86.015625 114.523438 C 86.605469 114.199219 87.394531 114.015625 88.222656 114 C 88.5625 113.992188 88.914063 114.015625 89.265625 114.066406 L 89.265625 116.210938 C 88.933594 116.132813 88.59375 116.101563 88.261719 116.105469 C 87.773438 116.117188 87.335938 116.210938 87.03125 116.375 C 85.605469 117.164063 84.332031 117.683594 83.003906 117.742188 C 81.621094 117.800781 80.277344 117.363281 78.800781 116.21875 C 78.492188 115.980469 78.070313 115.914063 77.597656 115.933594 L 77.59375 115.933594 C 77.203125 115.953125 76.757813 116.035156 76.300781 116.144531 Z M 76.300781 120.253906 C 76.703125 120.171875 77.101563 120.117188 77.496094 120.097656 C 78.441406 120.050781 79.328125 120.226563 80.089844 120.820313 C 81.136719 121.628906 82.035156 121.941406 82.914063 121.902344 C 83.847656 121.863281 84.847656 121.4375 86.015625 120.792969 C 86.605469 120.46875 87.394531 120.285156 88.222656 120.269531 C 88.5625 120.261719 88.914063 120.28125 89.265625 120.332031 L 89.265625 122.476563 C 88.933594 122.402344 88.59375 122.367188 88.261719 122.375 C 87.773438 122.386719 87.335938 122.476563 87.03125 122.644531 C 85.605469 123.433594 84.332031 123.953125 83.003906 124.007813 C 81.621094 124.070313 80.277344 123.632813 78.800781 122.488281 C 78.492188 122.25 78.070313 122.179688 77.597656 122.203125 L 77.59375 122.203125 C 77.203125 122.222656 76.757813 122.304688 76.300781 122.410156 Z M 76.300781 126.519531 C 76.703125 126.441406 77.101563 126.382813 77.496094 126.367188 L 77.496094 126.363281 C 78.441406 126.320313 79.328125 126.496094 80.089844 127.089844 C 81.136719 127.898438 82.035156 128.210938 82.914063 128.171875 C 83.847656 128.132813 84.847656 127.707031 86.015625 127.0625 C 86.605469 126.734375 87.394531 126.554688 88.222656 126.535156 C 88.5625 126.53125 88.914063 126.550781 89.265625 126.601563 L 89.265625 128.746094 C 88.933594 128.667969 88.59375 128.636719 88.261719 128.644531 C 87.773438 128.652344 87.335938 128.746094 87.03125 128.910156 C 85.605469 129.699219 84.332031 130.222656 83.003906 130.277344 C 81.621094 130.335938 80.277344 129.898438 78.800781 128.757813 C 78.492188 128.519531 78.070313 128.449219 77.597656 128.472656 L 77.59375 128.472656 C 77.203125 128.488281 76.757813 128.570313 76.300781 128.679688 Z M 76.300781 132.789063 C 76.703125 132.710938 77.101563 132.652344 77.496094 132.632813 C 78.441406 132.589844 79.328125 132.765625 80.089844 133.355469 C 81.136719 134.164063 82.035156 134.476563 82.914063 134.441406 C 83.847656 134.398438 84.847656 133.976563 86.015625 133.328125 C 86.605469 133.003906 87.394531 132.820313 88.222656 132.804688 C 88.5625 132.796875 88.914063 132.820313 89.265625 132.871094 L 89.265625 135.015625 C 88.933594 134.9375 88.59375 134.90625 88.261719 134.910156 C 87.773438 134.921875 87.335938 135.015625 87.03125 135.179688 C 85.605469 135.96875 84.332031 136.488281 83.003906 136.546875 C 81.621094 136.605469 80.277344 136.167969 78.800781 135.027344 C 78.492188 134.785156 78.070313 134.71875 77.597656 134.738281 L 77.59375 134.738281 C 77.203125 134.757813 76.757813 134.839844 76.300781 134.949219 Z M 91.542969 113.984375 C 91.945313 113.90625 92.34375 113.847656 92.742188 113.828125 C 93.683594 113.785156 94.570313 113.960938 95.339844 114.550781 C 96.378906 115.359375 97.277344 115.671875 98.15625 115.636719 C 99.089844 115.59375 100.09375 115.171875 101.261719 114.523438 C 101.847656 114.199219 102.636719 114.015625 103.464844 114 C 103.808594 113.992188 104.160156 114.015625 104.507813 114.066406 L 104.507813 116.210938 C 104.179688 116.132813 103.839844 116.101563 103.507813 116.105469 C 103.015625 116.117188 102.574219 116.210938 102.277344 116.375 C 100.851563 117.164063 99.578125 117.683594 98.246094 117.742188 C 96.867188 117.800781 95.523438 117.363281 94.046875 116.21875 C 93.734375 115.980469 93.316406 115.914063 92.839844 115.933594 C 92.441406 115.953125 92.003906 116.035156 91.542969 116.144531 Z M 91.542969 120.253906 C 91.945313 120.171875 92.34375 120.117188 92.742188 120.097656 C 93.683594 120.050781 94.570313 120.226563 95.339844 120.820313 C 96.378906 121.628906 97.277344 121.941406 98.15625 121.902344 C 99.089844 121.863281 100.09375 121.4375 101.261719 120.792969 C 101.847656 120.46875 102.636719 120.285156 103.464844 120.269531 C 103.808594 120.261719 104.160156 120.28125 104.507813 120.332031 L 104.507813 122.476563 C 104.179688 122.402344 103.839844 122.367188 103.507813 122.375 C 103.015625 122.386719 102.574219 122.476563 102.277344 122.644531 C 100.851563 123.433594 99.578125 123.953125 98.246094 124.007813 C 96.867188 124.070313 95.523438 123.632813 94.046875 122.488281 C 93.734375 122.25 93.316406 122.179688 92.839844 122.203125 C 92.441406 122.222656 92.003906 122.304688 91.542969 122.410156 Z M 91.542969 126.519531 C 91.945313 126.441406 92.34375 126.382813 92.742188 126.367188 L 92.742188 126.363281 C 93.683594 126.320313 94.570313 126.496094 95.339844 127.089844 C 96.378906 127.898438 97.277344 128.210938 98.15625 128.171875 C 99.089844 128.132813 100.09375 127.707031 101.261719 127.0625 C 101.847656 126.734375 102.636719 126.554688 103.464844 126.535156 C 103.808594 126.53125 104.160156 126.550781 104.507813 126.601563 L 104.507813 128.746094 C 104.179688 128.667969 103.839844 128.636719 103.507813 128.644531 C 103.015625 128.652344 102.574219 128.746094 102.277344 128.910156 C 100.851563 129.699219 99.578125 130.222656 98.246094 130.277344 C 96.867188 130.335938 95.523438 129.898438 94.046875 128.757813 C 93.734375 128.519531 93.316406 128.449219 92.839844 128.472656 C 92.441406 128.488281 92.003906 128.570313 91.542969 128.679688 Z M 91.542969 132.789063 C 91.945313 132.710938 92.34375 132.652344 92.742188 132.632813 C 93.683594 132.589844 94.570313 132.765625 95.339844 133.355469 C 96.378906 134.164063 97.277344 134.476563 98.15625 134.441406 C 99.089844 134.398438 100.09375 133.976563 101.261719 133.328125 C 101.847656 133.003906 102.636719 132.820313 103.464844 132.804688 C 103.808594 132.796875 104.160156 132.820313 104.507813 132.871094 L 104.507813 135.015625 C 104.179688 134.9375 103.839844 134.90625 103.507813 134.910156 C 103.015625 134.921875 102.574219 135.015625 102.277344 135.179688 C 100.851563 135.96875 99.578125 136.488281 98.246094 136.546875 C 96.867188 136.605469 95.523438 136.167969 94.046875 135.027344 C 93.734375 134.785156 93.316406 134.71875 92.839844 134.738281 C 92.441406 134.757813 92.003906 134.839844 91.542969 134.949219 Z M 91.542969 137.851563 C 91.945313 137.773438 92.34375 137.714844 92.742188 137.695313 C 93.683594 137.652344 94.570313 137.828125 95.339844 138.421875 C 96.378906 139.230469 97.277344 139.542969 98.15625 139.503906 C 99.089844 139.464844 100.09375 139.039063 101.261719 138.390625 C 101.847656 138.066406 102.636719 137.882813 103.464844 137.867188 C 103.808594 137.863281 104.160156 137.882813 104.507813 137.933594 L 104.507813 140.078125 C 104.179688 140 103.839844 139.96875 103.507813 139.976563 C 103.015625 139.984375 102.574219 140.078125 102.277344 140.242188 C 100.851563 141.03125 99.578125 141.550781 98.246094 141.609375 C 96.867188 141.667969 95.523438 141.230469 94.046875 140.089844 C 93.734375 139.847656 93.316406 139.78125 92.839844 139.804688 C 92.441406 139.820313 92.003906 139.902344 91.542969 140.011719 Z M 106.789063 113.984375 C 107.1875 113.90625 107.589844 113.847656 107.984375 113.828125 C 108.929688 113.785156 109.8125 113.960938 110.578125 114.550781 C 111.628906 115.359375 112.523438 115.671875 113.402344 115.636719 C 114.335938 115.59375 115.339844 115.171875 116.503906 114.523438 C 117.089844 114.199219 117.882813 114.015625 118.714844 114 C 119.050781 113.992188 119.402344 114.015625 119.753906 114.066406 L 119.753906 116.210938 C 119.421875 116.132813 119.085938 116.101563 118.753906 116.105469 C 118.261719 116.117188 117.816406 116.210938 117.519531 116.375 C 116.09375 117.164063 114.816406 117.683594 113.492188 117.742188 C 112.109375 117.800781 110.765625 117.363281 109.289063 116.21875 C 108.980469 115.980469 108.558594 115.914063 108.089844 115.933594 L 108.085938 115.933594 C 107.6875 115.953125 107.246094 116.035156 106.789063 116.144531 Z M 106.789063 120.253906 C 107.1875 120.171875 107.589844 120.117188 107.984375 120.097656 C 108.929688 120.050781 109.8125 120.226563 110.578125 120.820313 C 111.628906 121.628906 112.523438 121.941406 113.402344 121.902344 C 114.335938 121.863281 115.339844 121.4375 116.503906 120.792969 C 117.089844 120.46875 117.882813 120.285156 118.714844 120.269531 C 119.050781 120.261719 119.402344 120.28125 119.753906 120.332031 L 119.753906 122.476563 C 119.421875 122.402344 119.085938 122.367188 118.753906 122.375 C 118.261719 122.386719 117.816406 122.476563 117.519531 122.644531 C 116.09375 123.433594 114.816406 123.953125 113.492188 124.007813 C 112.109375 124.070313 110.765625 123.632813 109.289063 122.488281 C 108.980469 122.25 108.558594 122.179688 108.089844 122.203125 L 108.085938 122.203125 C 107.6875 122.222656 107.246094 122.304688 106.789063 122.410156 Z M 106.789063 126.519531 C 107.1875 126.441406 107.589844 126.382813 107.984375 126.367188 L 107.984375 126.363281 C 108.929688 126.320313 109.8125 126.496094 110.578125 127.089844 C 111.628906 127.898438 112.523438 128.210938 113.402344 128.171875 C 114.335938 128.132813 115.339844 127.707031 116.503906 127.0625 C 117.089844 126.734375 117.882813 126.554688 118.714844 126.535156 C 119.050781 126.53125 119.402344 126.550781 119.753906 126.601563 L 119.753906 128.746094 C 119.421875 128.667969 119.085938 128.636719 118.753906 128.644531 C 118.261719 128.652344 117.816406 128.746094 117.519531 128.910156 C 116.09375 129.699219 114.816406 130.222656 113.492188 130.277344 C 112.109375 130.335938 110.765625 129.898438 109.289063 128.757813 C 108.980469 128.519531 108.558594 128.449219 108.089844 128.472656 L 108.085938 128.472656 C 107.6875 128.488281 107.246094 128.570313 106.789063 128.679688 Z M 106.789063 132.789063 C 107.1875 132.710938 107.589844 132.652344 107.984375 132.632813 C 108.929688 132.589844 109.8125 132.765625 110.578125 133.355469 C 111.628906 134.164063 112.523438 134.476563 113.402344 134.441406 C 114.335938 134.398438 115.339844 133.976563 116.503906 133.328125 C 117.089844 133.003906 117.882813 132.820313 118.714844 132.804688 C 119.050781 132.796875 119.402344 132.820313 119.753906 132.871094 L 119.753906 135.015625 C 119.421875 134.9375 119.085938 134.90625 118.753906 134.910156 C 118.261719 134.921875 117.816406 135.015625 117.519531 135.179688 C 116.09375 135.96875 114.816406 136.488281 113.492188 136.546875 C 112.109375 136.605469 110.765625 136.167969 109.289063 135.027344 C 108.980469 134.785156 108.558594 134.71875 108.089844 134.738281 L 108.085938 134.738281 C 107.6875 134.757813 107.246094 134.839844 106.789063 134.949219 Z M 106.789063 137.851563 C 107.1875 137.773438 107.589844 137.714844 107.984375 137.695313 C 108.929688 137.652344 109.8125 137.828125 110.578125 138.421875 C 111.628906 139.230469 112.523438 139.542969 113.402344 139.503906 C 114.335938 139.464844 115.339844 139.039063 116.503906 138.390625 C 117.089844 138.066406 117.882813 137.882813 118.714844 137.867188 C 119.050781 137.863281 119.402344 137.882813 119.753906 137.933594 L 119.753906 140.078125 C 119.421875 140 119.085938 139.96875 118.753906 139.976563 C 118.261719 139.984375 117.816406 140.078125 117.519531 140.242188 C 116.09375 141.03125 114.816406 141.550781 113.492188 141.609375 C 112.109375 141.667969 110.765625 141.230469 109.289063 140.089844 C 108.980469 139.847656 108.558594 139.78125 108.089844 139.804688 L 108.085938 139.804688 C 107.6875 139.820313 107.246094 139.902344 106.789063 140.011719 Z M 122.03125 113.984375 C 122.433594 113.90625 122.835938 113.847656 123.230469 113.828125 C 124.171875 113.785156 125.054688 113.960938 125.820313 114.550781 C 126.867188 115.359375 127.765625 115.671875 128.644531 115.636719 C 129.578125 115.59375 130.585938 115.171875 131.753906 114.523438 C 132.339844 114.199219 133.128906 114.015625 133.953125 114 C 134.296875 113.992188 134.648438 114.015625 134.996094 114.066406 L 134.996094 116.210938 C 134.671875 116.132813 134.324219 116.101563 133.996094 116.105469 C 133.503906 116.117188 133.0625 116.210938 132.765625 116.375 C 131.339844 117.164063 130.0625 117.683594 128.734375 117.742188 C 127.355469 117.800781 126.011719 117.363281 124.535156 116.21875 C 124.222656 115.980469 123.804688 115.914063 123.328125 115.933594 L 123.324219 115.933594 C 122.929688 115.953125 122.488281 116.035156 122.03125 116.144531 Z M 122.03125 120.253906 C 122.433594 120.171875 122.835938 120.117188 123.230469 120.097656 C 124.171875 120.050781 125.054688 120.226563 125.820313 120.820313 C 126.867188 121.628906 127.765625 121.941406 128.644531 121.902344 C 129.578125 121.863281 130.585938 121.4375 131.753906 120.792969 C 132.339844 120.46875 133.128906 120.285156 133.953125 120.269531 C 134.296875 120.261719 134.648438 120.28125 134.996094 120.332031 L 134.996094 122.476563 C 134.671875 122.402344 134.324219 122.367188 133.996094 122.375 C 133.503906 122.386719 133.0625 122.476563 132.765625 122.644531 C 131.339844 123.433594 130.0625 123.953125 128.734375 124.007813 C 127.355469 124.070313 126.011719 123.632813 124.535156 122.488281 C 124.222656 122.25 123.804688 122.179688 123.328125 122.203125 L 123.324219 122.203125 C 122.929688 122.222656 122.488281 122.304688 122.03125 122.410156 Z M 122.03125 126.519531 C 122.433594 126.441406 122.835938 126.382813 123.230469 126.367188 L 123.230469 126.363281 C 124.171875 126.320313 125.054688 126.496094 125.820313 127.089844 C 126.867188 127.898438 127.765625 128.210938 128.644531 128.171875 C 129.578125 128.132813 130.585938 127.707031 131.753906 127.0625 C 132.339844 126.734375 133.128906 126.554688 133.953125 126.535156 C 134.296875 126.53125 134.648438 126.550781 134.996094 126.601563 L 134.996094 128.746094 C 134.671875 128.667969 134.324219 128.636719 133.996094 128.644531 C 133.503906 128.652344 133.0625 128.746094 132.765625 128.910156 C 131.339844 129.699219 130.0625 130.222656 128.734375 130.277344 C 127.355469 130.335938 126.011719 129.898438 124.535156 128.757813 C 124.222656 128.519531 123.804688 128.449219 123.328125 128.472656 L 123.324219 128.472656 C 122.929688 128.488281 122.488281 128.570313 122.03125 128.679688 Z M 105.777344 97.210938 C 107.191406 96.359375 108.597656 95.726563 109.96875 95.277344 L 110.367188 98.054688 C 109.070313 98.550781 107.742188 99.214844 106.414063 100.074219 Z M 111.191406 94.917969 C 113.191406 94.40625 115.085938 94.277344 116.753906 94.414063 L 116.992188 96.835938 C 115.335938 96.8125 113.503906 97.046875 111.585938 97.636719 Z M 118.046875 94.578125 C 118.527344 94.664063 118.988281 94.769531 119.421875 94.898438 C 120.996094 95.359375 122.328125 95.785156 123.496094 96.167969 L 123.703125 98.296875 C 122.800781 98.007813 121.804688 97.699219 120.683594 97.367188 C 119.953125 97.15625 119.144531 96.996094 118.273438 96.910156 Z M 124.8125 96.605469 C 126.46875 97.164063 127.785156 97.613281 129.0625 97.949219 L 129.175781 100.09375 C 127.972656 99.726563 126.660156 99.269531 125.019531 98.726563 Z M 130.355469 98.253906 C 131.886719 98.5625 133.507813 98.707031 135.734375 98.671875 L 136.011719 101.148438 C 133.757813 101.125 132.136719 100.890625 130.46875 100.460938 Z M 137.007813 98.636719 C 138.484375 98.578125 140.210938 98.453125 142.296875 98.257813 L 142.746094 100.804688 C 140.554688 100.996094 138.785156 101.105469 137.285156 101.140625 Z M 107.804688 80.308594 L 108.476563 84.949219 C 106.753906 85.511719 104.996094 86.421875 103.214844 87.742188 L 103.097656 102.800781 C 118.320313 102.800781 132.6875 102.800781 147.476563 102.800781 C 145.730469 95.402344 143.984375 88.007813 142.234375 80.609375 C 135.609375 82.269531 129.15625 81.894531 122.671875 77.640625 C 117.90625 74.515625 111.15625 75.699219 103.273438 79.472656 L 103.253906 82.835938 C 104.789063 81.703125 106.308594 80.871094 107.804688 80.308594 Z M 108.703125 86.53125 L 109.101563 89.289063 C 107.6875 89.714844 106.171875 90.425781 104.511719 91.507813 L 103.953125 89 C 105.675781 87.8125 107.242188 87.019531 108.703125 86.53125 Z M 109.324219 90.808594 L 109.746094 93.75 C 108.328125 94.152344 106.867188 94.738281 105.40625 95.539063 L 104.828125 92.925781 C 106.414063 91.929688 107.910156 91.242188 109.324219 90.808594 Z M 110.976563 93.441406 L 110.550781 90.488281 C 112.679688 90.03125 114.613281 90.140625 116.378906 90.582031 L 116.628906 93.121094 C 114.964844 92.929688 113.035156 93 110.976563 93.441406 Z M 110.339844 88.984375 L 109.929688 86.1875 C 112.121094 85.683594 114.078125 85.855469 115.964844 86.359375 L 116.253906 89.320313 C 114.394531 88.792969 112.472656 88.566406 110.339844 88.984375 Z M 109.703125 84.609375 L 109.023438 79.90625 C 111.15625 79.300781 113.246094 79.222656 115.300781 79.554688 L 115.785156 84.523438 C 113.796875 84.132813 111.769531 84.128906 109.703125 84.609375 Z M 117.921875 93.332031 L 117.691406 90.949219 C 119.855469 91.589844 121.613281 92.199219 123.160156 92.738281 L 123.378906 94.976563 C 122.0625 94.535156 120.535156 94.046875 118.671875 93.519531 C 118.429688 93.449219 118.179688 93.386719 117.921875 93.332031 Z M 117.570313 89.710938 L 117.277344 86.738281 C 119.453125 87.394531 121.214844 88.046875 122.757813 88.632813 L 123.050781 91.628906 C 121.503906 91.039063 119.753906 90.378906 117.570313 89.710938 Z M 117.09375 84.832031 L 116.601563 79.824219 C 118.324219 80.25 120.019531 80.953125 121.699219 81.867188 C 121.839844 81.941406 121.976563 82.015625 122.117188 82.085938 L 122.621094 87.214844 C 122.308594 87.066406 122.003906 86.910156 121.699219 86.742188 C 120.179688 85.917969 118.644531 85.265625 117.09375 84.832031 Z M 124.699219 95.421875 L 124.480469 93.199219 C 126.054688 93.742188 127.4375 94.191406 128.882813 94.492188 L 129.003906 96.800781 C 127.683594 96.457031 126.359375 95.988281 124.699219 95.421875 Z M 124.378906 92.132813 L 124.085938 89.136719 C 125.71875 89.757813 127.152344 90.273438 128.683594 90.597656 L 128.839844 93.515625 C 127.339844 93.210938 125.945313 92.722656 124.378906 92.132813 Z M 123.953125 87.792969 L 123.460938 82.71875 C 125.074219 83.410156 126.710938 83.855469 128.347656 84.109375 L 128.601563 89.003906 C 127.03125 88.777344 125.476563 88.386719 123.953125 87.792969 Z M 130.296875 97.097656 L 130.171875 94.714844 C 131.671875 94.925781 133.296875 94.976563 135.304688 94.816406 L 135.601563 97.488281 C 133.402344 97.527344 131.785156 97.386719 130.296875 97.097656 Z M 130.121094 93.722656 L 129.96875 90.820313 C 131.390625 91.011719 132.953125 91.03125 134.859375 90.824219 L 135.175781 93.671875 C 133.191406 93.910156 131.578125 93.90625 130.121094 93.722656 Z M 129.882813 89.148438 L 129.628906 84.265625 C 131.121094 84.402344 132.617188 84.386719 134.128906 84.257813 L 134.671875 89.121094 C 133.070313 89.261719 131.472656 89.285156 129.882813 89.148438 Z M 136.878906 97.449219 L 136.566406 94.695313 C 138.007813 94.535156 139.636719 94.273438 141.53125 93.90625 L 142.089844 97.058594 C 140.046875 97.257813 138.339844 97.386719 136.878906 97.449219 Z M 136.433594 93.5 L 136.117188 90.664063 C 137.484375 90.464844 139.023438 90.15625 140.796875 89.726563 L 141.214844 92.09375 L 141.214844 92.511719 C 139.402344 92.957031 137.828125 93.28125 136.433594 93.5 Z M 135.929688 88.980469 L 135.386719 84.125 C 136.808594 83.941406 138.238281 83.667969 139.671875 83.328125 L 140.511719 88.113281 C 139.003906 88.484375 137.46875 88.785156 135.929688 88.980469 Z M 99.59375 97.210938 C 98.179688 96.359375 96.773438 95.726563 95.40625 95.277344 L 95.003906 98.054688 C 96.304688 98.550781 97.628906 99.214844 98.960938 100.074219 Z M 94.183594 94.917969 C 92.179688 94.40625 90.289063 94.277344 88.621094 94.414063 L 88.382813 96.835938 C 90.039063 96.8125 91.871094 97.046875 93.789063 97.636719 Z M 87.332031 94.578125 C 86.84375 94.664063 86.386719 94.769531 85.960938 94.898438 C 84.378906 95.359375 83.046875 95.785156 81.878906 96.167969 L 81.671875 98.296875 C 82.578125 98.007813 83.570313 97.699219 84.691406 97.367188 C 85.421875 97.15625 86.230469 96.996094 87.101563 96.910156 Z M 80.558594 96.605469 C 78.902344 97.164063 77.589844 97.613281 76.308594 97.949219 L 76.203125 100.09375 C 77.402344 99.726563 78.714844 99.269531 80.351563 98.726563 Z M 75.019531 98.253906 C 73.488281 98.5625 71.863281 98.707031 69.636719 98.671875 L 69.363281 101.148438 C 71.613281 101.125 73.238281 100.890625 74.902344 100.460938 Z M 68.367188 98.636719 C 66.890625 98.578125 65.164063 98.453125 63.082031 98.257813 L 62.628906 100.804688 C 64.816406 100.996094 66.589844 101.105469 68.089844 101.140625 Z M 97.566406 80.308594 L 96.898438 84.949219 C 98.621094 85.511719 100.378906 86.421875 102.160156 87.742188 L 102.273438 102.800781 C 87.050781 102.800781 72.683594 102.800781 57.894531 102.800781 C 59.644531 95.402344 61.390625 88.007813 63.136719 80.609375 C 69.761719 82.269531 76.21875 81.894531 82.710938 77.640625 C 87.46875 74.515625 94.214844 75.699219 102.097656 79.472656 L 102.128906 82.835938 C 100.585938 81.703125 99.0625 80.871094 97.566406 80.308594 Z M 96.667969 86.53125 L 96.269531 89.289063 C 97.6875 89.714844 99.207031 90.425781 100.859375 91.507813 L 101.421875 89 C 99.703125 87.8125 98.128906 87.019531 96.667969 86.53125 Z M 96.050781 90.808594 L 95.628906 93.75 C 97.042969 94.152344 98.503906 94.738281 99.964844 95.539063 L 100.546875 92.925781 C 98.964844 91.929688 97.464844 91.242188 96.050781 90.808594 Z M 94.394531 93.441406 L 94.820313 90.488281 C 92.691406 90.03125 90.761719 90.140625 88.996094 90.582031 L 88.746094 93.121094 C 90.410156 92.929688 92.339844 93 94.394531 93.441406 Z M 95.039063 88.984375 L 95.441406 86.1875 C 93.253906 85.683594 91.296875 85.855469 89.40625 86.359375 L 89.117188 89.320313 C 90.980469 88.792969 92.902344 88.566406 95.039063 88.984375 Z M 95.671875 84.609375 L 96.351563 79.90625 C 94.21875 79.300781 92.128906 79.222656 90.078125 79.554688 L 89.589844 84.523438 C 91.582031 84.132813 93.605469 84.128906 95.671875 84.609375 Z M 87.453125 93.332031 L 87.683594 90.949219 C 85.519531 91.589844 83.757813 92.199219 82.214844 92.738281 L 81.996094 94.976563 C 83.308594 94.535156 84.839844 94.046875 86.707031 93.519531 C 86.941406 93.449219 87.191406 93.386719 87.453125 93.332031 Z M 87.804688 89.710938 L 88.09375 86.738281 C 85.917969 87.394531 84.160156 88.046875 82.617188 88.632813 L 82.328125 91.628906 C 83.867188 91.039063 85.628906 90.378906 87.804688 89.710938 Z M 88.28125 84.832031 L 88.769531 79.824219 C 87.050781 80.25 85.351563 80.953125 83.675781 81.867188 C 83.535156 81.941406 83.394531 82.015625 83.253906 82.085938 L 82.753906 87.214844 C 83.0625 87.066406 83.371094 86.910156 83.675781 86.742188 C 85.195313 85.917969 86.726563 85.265625 88.28125 84.832031 Z M 80.675781 95.421875 L 80.894531 93.199219 C 79.320313 93.742188 77.933594 94.191406 76.488281 94.492188 L 76.367188 96.800781 C 77.691406 96.457031 79.015625 95.988281 80.675781 95.421875 Z M 80.996094 92.132813 L 81.289063 89.136719 C 79.65625 89.757813 78.222656 90.273438 76.691406 90.597656 L 76.539063 93.515625 C 78.035156 93.210938 79.429688 92.722656 80.996094 92.132813 Z M 81.421875 87.792969 L 81.917969 82.71875 C 80.300781 83.410156 78.667969 83.855469 77.027344 84.109375 L 76.773438 89.003906 C 78.34375 88.777344 79.898438 88.386719 81.421875 87.792969 Z M 75.082031 97.097656 L 75.207031 94.714844 C 73.710938 94.925781 72.082031 94.976563 70.070313 94.816406 L 69.769531 97.488281 C 71.96875 97.527344 73.589844 97.386719 75.082031 97.097656 Z M 75.253906 93.722656 L 75.402344 90.820313 C 73.984375 91.011719 72.421875 91.03125 70.515625 90.824219 L 70.195313 93.671875 C 72.179688 93.910156 73.792969 93.90625 75.253906 93.722656 Z M 75.488281 89.148438 L 75.742188 84.265625 C 74.253906 84.402344 72.753906 84.386719 71.253906 84.257813 L 70.710938 89.121094 C 72.300781 89.261719 73.902344 89.285156 75.488281 89.148438 Z M 68.503906 97.449219 L 68.808594 94.695313 C 67.367188 94.535156 65.734375 94.273438 63.84375 93.90625 L 63.289063 97.058594 C 65.335938 97.257813 67.035156 97.386719 68.503906 97.449219 Z M 68.941406 93.5 L 69.257813 90.664063 C 67.890625 90.464844 66.347656 90.15625 64.582031 89.726563 L 64.160156 92.09375 L 64.160156 92.511719 C 65.972656 92.957031 67.542969 93.28125 68.941406 93.5 Z M 69.445313 88.980469 L 69.988281 84.125 C 68.566406 83.941406 67.136719 83.667969 65.707031 83.328125 L 64.863281 88.113281 C 66.378906 88.484375 67.90625 88.785156 69.445313 88.980469 Z M 151.753906 111.160156 C 151.214844 112.441406 150.617188 113.699219 149.984375 114.925781 C 150.070313 114.757813 150.15625 114.589844 150.242188 114.421875 L 150.242188 114.066406 C 149.890625 114.015625 149.539063 113.992188 149.199219 114 C 148.371094 114.015625 147.578125 114.199219 146.992188 114.523438 C 145.824219 115.171875 144.820313 115.59375 143.890625 115.636719 C 143.011719 115.671875 142.113281 115.359375 141.066406 114.550781 C 140.300781 113.960938 139.414063 113.785156 138.472656 113.828125 C 138.074219 113.847656 137.675781 113.90625 137.277344 113.984375 L 137.277344 116.144531 C 137.734375 116.035156 138.171875 115.953125 138.570313 115.933594 L 138.574219 115.933594 C 139.046875 115.914063 139.46875 115.980469 139.777344 116.21875 C 141.253906 117.363281 142.597656 117.800781 143.980469 117.742188 C 145.304688 117.683594 146.585938 117.164063 148.007813 116.375 C 148.304688 116.210938 148.746094 116.117188 149.238281 116.105469 C 149.277344 116.105469 149.316406 116.105469 149.355469 116.105469 C 148.382813 117.878906 147.3125 119.589844 146.148438 121.230469 C 145.328125 121.625 144.589844 121.875 143.886719 121.902344 C 143.011719 121.941406 142.109375 121.628906 141.066406 120.820313 C 140.300781 120.226563 139.414063 120.050781 138.472656 120.097656 C 138.074219 120.117188 137.675781 120.171875 137.277344 120.253906 L 137.277344 122.410156 C 137.734375 122.304688 138.171875 122.222656 138.570313 122.203125 L 138.574219 122.203125 C 139.046875 122.179688 139.46875 122.25 139.777344 122.488281 C 141.253906 123.632813 142.597656 124.070313 143.980469 124.007813 L 144.039063 124.007813 C 144.234375 123.769531 144.425781 123.527344 144.613281 123.285156 C 143.546875 124.648438 142.421875 125.957031 141.222656 127.207031 C 141.171875 127.167969 141.117188 127.128906 141.066406 127.089844 C 140.300781 126.496094 139.414063 126.320313 138.472656 126.363281 L 138.472656 126.367188 C 138.074219 126.382813 137.675781 126.441406 137.277344 126.519531 L 137.277344 128.679688 C 137.734375 128.570313 138.171875 128.488281 138.566406 128.472656 L 138.570313 128.472656 C 139.019531 128.449219 139.421875 128.511719 139.722656 128.71875 C 139.855469 128.585938 139.992188 128.457031 140.128906 128.324219 C 135.972656 132.433594 131.144531 135.859375 125.824219 138.421875 L 125.820313 138.421875 C 125.054688 137.828125 124.171875 137.652344 123.230469 137.695313 L 123.230469 137.699219 C 122.835938 137.714844 122.429688 137.773438 122.03125 137.851563 L 122.03125 140.011719 C 122.144531 139.984375 122.253906 139.960938 122.363281 139.9375 L 122.425781 139.914063 C 116.367188 142.324219 109.753906 143.648438 102.835938 143.648438 C 96.882813 143.648438 91.160156 142.667969 85.816406 140.859375 C 86.214844 140.679688 86.617188 140.472656 87.03125 140.242188 C 87.332031 140.078125 87.773438 139.984375 88.261719 139.976563 C 88.589844 139.96875 88.933594 140 89.261719 140.078125 L 89.261719 137.933594 C 88.914063 137.882813 88.5625 137.863281 88.222656 137.867188 C 87.394531 137.886719 86.601563 138.066406 86.015625 138.394531 C 84.847656 139.039063 83.84375 139.464844 82.910156 139.503906 C 82.636719 139.515625 82.355469 139.492188 82.070313 139.429688 C 80.917969 138.941406 79.789063 138.410156 78.679688 137.84375 C 79.300781 138.160156 79.925781 138.464844 80.558594 138.757813 C 80.40625 138.65625 80.253906 138.542969 80.089844 138.421875 C 79.597656 138.042969 79.058594 137.832031 78.488281 137.742188 C 76.289063 136.605469 74.175781 135.316406 72.167969 133.890625 C 72.660156 134.238281 73.160156 134.578125 73.664063 134.914063 L 73.664063 132.871094 C 73.3125 132.820313 72.964844 132.800781 72.621094 132.804688 C 72.058594 132.816406 71.511719 132.90625 71.035156 133.0625 C 63.546875 127.449219 57.59375 119.898438 53.917969 111.160156 Z M 145.109375 122.644531 C 145.023438 122.757813 144.9375 122.871094 144.851563 122.980469 C 144.9375 122.871094 145.023438 122.757813 145.109375 122.644531 Z M 145.109375 122.644531 "/>
<path style=" stroke:none;fill-rule:evenodd;fill:rgb(0%,56.443787%,20.776367%);fill-opacity:1;" d="M 124.851563 42.332031 C 136.722656 47.757813 146.242188 57.429688 151.46875 69.410156 L 124.851563 69.410156 Z M 54.203125 69.410156 C 59.425781 57.429688 68.945313 47.757813 80.816406 42.332031 L 80.816406 69.410156 Z M 54.203125 69.410156 "/>
<path style=" stroke:none;fill-rule:evenodd;fill:rgb(89.0625%,0%,8.616638%);fill-opacity:1;" d="M 93.976563 46.808594 C 94.660156 46.808594 95.214844 47.363281 95.214844 48.046875 C 95.214844 48.734375 94.660156 49.289063 93.976563 49.289063 C 93.289063 49.289063 92.734375 48.734375 92.734375 48.046875 C 92.734375 47.363281 93.289063 46.808594 93.976563 46.808594 Z M 111.691406 46.808594 C 112.378906 46.808594 112.933594 47.363281 112.933594 48.046875 C 112.933594 48.734375 112.378906 49.289063 111.691406 49.289063 C 111.007813 49.289063 110.453125 48.734375 110.453125 48.046875 C 110.453125 47.363281 111.007813 46.808594 111.691406 46.808594 Z M 96.984375 41.480469 C 97.671875 41.480469 98.226563 42.039063 98.226563 42.722656 C 98.226563 43.40625 97.671875 43.964844 96.984375 43.964844 C 96.300781 43.964844 95.746094 43.40625 95.746094 42.722656 C 95.746094 42.039063 96.300781 41.480469 96.984375 41.480469 Z M 108.683594 41.480469 C 109.367188 41.480469 109.921875 42.039063 109.921875 42.722656 C 109.921875 43.40625 109.367188 43.964844 108.683594 43.964844 C 107.996094 43.964844 107.441406 43.40625 107.441406 42.722656 C 107.441406 42.039063 107.996094 41.480469 108.683594 41.480469 Z M 118.761719 50.597656 L 118.761719 65.480469 C 115.453125 62.433594 109.558594 60.410156 102.839844 60.410156 C 96.109375 60.410156 90.214844 62.433594 86.90625 65.480469 L 86.90625 50.632813 L 97.722656 59.050781 L 102.8125 50.574219 L 107.90625 59.050781 Z M 102.839844 37.558594 C 103.820313 37.558594 104.617188 38.359375 104.617188 39.34375 C 104.617188 40.328125 103.820313 41.125 102.839844 41.125 C 101.847656 41.125 101.050781 40.328125 101.050781 39.34375 C 101.050781 38.359375 101.847656 37.558594 102.839844 37.558594 Z M 102.839844 37.558594 "/>
<path style=" stroke:none;fill-rule:evenodd;fill:rgb(0%,33.714294%,63.867188%);fill-opacity:1;" d="M 35.464844 154.175781 C 31.839844 150.339844 28.542969 146.191406 25.613281 141.78125 C 22.710938 137.402344 20.164063 132.765625 18.023438 127.914063 L 17.628906 127.007813 L 18.507813 126.550781 L 35.15625 117.984375 L 36.167969 117.464844 L 36.609375 118.515625 C 38.28125 122.472656 40.300781 126.257813 42.628906 129.820313 C 44.976563 133.417969 47.640625 136.792969 50.585938 139.90625 L 51.304688 140.671875 L 50.535156 141.398438 L 36.953125 154.222656 L 36.183594 154.945313 Z M 27.371094 140.617188 C 30.039063 144.632813 33.019531 148.425781 36.273438 151.957031 L 48.332031 140.582031 C 45.589844 137.597656 43.089844 134.382813 40.863281 130.96875 C 38.675781 127.621094 36.753906 124.078125 35.121094 120.375 L 20.363281 127.96875 C 22.367188 132.386719 24.714844 136.617188 27.371094 140.617188 Z M 27.371094 140.617188 "/>
<path style=" stroke:none;fill-rule:evenodd;fill:rgb(0%,33.714294%,63.867188%);fill-opacity:1;" d="M 187.898438 127.324219 C 185.769531 132.242188 183.238281 136.929688 180.347656 141.339844 C 177.425781 145.789063 174.128906 149.984375 170.480469 153.878906 L 169.785156 154.625 L 169.019531 153.953125 L 154.964844 141.640625 L 154.132813 140.914063 L 154.890625 140.121094 C 157.765625 137.097656 160.378906 133.824219 162.695313 130.335938 C 165.003906 126.875 167.007813 123.203125 168.6875 119.363281 L 169.101563 118.414063 L 170.054688 118.808594 L 187.335938 125.933594 L 188.324219 126.339844 Z M 178.578125 140.183594 C 181.226563 136.148438 183.554688 131.898438 185.535156 127.472656 L 170.199219 121.148438 C 168.554688 124.765625 166.632813 128.226563 164.460938 131.5 C 162.273438 134.785156 159.839844 137.886719 157.171875 140.773438 L 169.636719 151.691406 C 172.90625 148.121094 175.898438 144.269531 178.578125 140.183594 Z M 178.578125 140.183594 "/>
<path style=" stroke:none;fill-rule:evenodd;fill:rgb(0%,33.714294%,63.867188%);fill-opacity:1;" d="M 35.335938 155.742188 C 43.902344 164.625 54.214844 171.820313 65.71875 176.78125 C 77.097656 181.691406 89.648438 184.410156 102.835938 184.410156 C 116.113281 184.410156 128.742188 181.65625 140.183594 176.683594 C 151.738281 171.660156 162.085938 164.378906 170.664063 155.394531 L 158.007813 144.3125 C 150.996094 151.515625 142.589844 157.351563 133.21875 161.378906 C 123.894531 165.386719 113.621094 167.609375 102.835938 167.609375 C 92.003906 167.609375 81.679688 165.363281 72.316406 161.316406 C 62.921875 157.253906 54.503906 151.378906 47.488281 144.132813 Z M 64.882813 178.722656 C 52.792969 173.507813 41.984375 165.871094 33.070313 156.429688 L 32.351563 155.667969 L 33.113281 154.941406 L 46.796875 141.878906 L 47.5625 141.144531 L 48.292969 141.917969 C 55.253906 149.316406 63.703125 155.296875 73.152344 159.382813 C 82.246094 163.3125 92.28125 165.492188 102.835938 165.492188 C 113.335938 165.492188 123.320313 163.332031 132.382813 159.4375 C 141.804688 155.386719 150.230469 149.460938 157.183594 142.128906 L 157.878906 141.394531 L 158.640625 142.0625 L 172.878906 154.53125 L 173.699219 155.25 L 172.960938 156.042969 C 164.035156 165.597656 153.183594 173.332031 141.023438 178.617188 C 129.316406 183.703125 116.402344 186.527344 102.835938 186.527344 C 89.355469 186.527344 76.523438 183.746094 64.882813 178.722656 Z M 64.882813 178.722656 "/>
<path style=" stroke:none;fill-rule:evenodd;fill:rgb(0%,33.714294%,63.867188%);fill-opacity:1;" d="M 102.835938 33.175781 C 118.691406 33.175781 133.050781 39.601563 143.441406 49.996094 C 153.839844 60.386719 160.261719 74.746094 160.261719 90.605469 C 160.261719 106.460938 153.839844 120.820313 143.441406 131.214844 C 133.050781 141.605469 118.691406 148.035156 102.835938 148.035156 C 86.976563 148.035156 72.617188 141.605469 62.226563 131.214844 C 51.835938 120.820313 45.40625 106.460938 45.40625 90.605469 C 45.40625 74.746094 51.835938 60.386719 62.226563 49.996094 C 72.617188 39.601563 86.976563 33.175781 102.835938 33.175781 Z M 142.195313 51.242188 C 132.128906 41.167969 118.210938 34.9375 102.835938 34.9375 C 87.464844 34.9375 73.542969 41.167969 63.472656 51.242188 C 53.398438 61.316406 47.167969 75.230469 47.167969 90.605469 C 47.167969 105.976563 53.398438 119.894531 63.472656 129.96875 C 73.542969 140.039063 87.464844 146.273438 102.835938 146.273438 C 118.210938 146.273438 132.128906 140.039063 142.195313 129.96875 C 152.269531 119.894531 158.503906 105.976563 158.503906 90.605469 C 158.503906 75.230469 152.269531 61.316406 142.195313 51.242188 Z M 142.195313 51.242188 "/>
<path style=" stroke:none;fill-rule:evenodd;fill:rgb(0%,33.714294%,63.867188%);fill-opacity:1;" d="M 53.277344 124.191406 L 54.261719 125.445313 L 50.945313 128.039063 C 50.417969 128.449219 50.089844 128.730469 49.960938 128.882813 C 49.753906 129.132813 49.648438 129.417969 49.65625 129.738281 C 49.660156 130.058594 49.800781 130.394531 50.078125 130.746094 C 50.355469 131.101563 50.636719 131.316406 50.921875 131.386719 C 51.210938 131.457031 51.464844 131.425781 51.707031 131.300781 C 51.941406 131.171875 52.300781 130.921875 52.785156 130.542969 L 56.171875 127.894531 L 57.15625 129.152344 L 53.9375 131.664063 C 53.207031 132.238281 52.660156 132.609375 52.300781 132.78125 C 51.945313 132.949219 51.59375 133.023438 51.242188 133.003906 C 50.890625 132.984375 50.53125 132.871094 50.171875 132.664063 C 49.808594 132.453125 49.433594 132.101563 49.046875 131.609375 C 48.585938 131.015625 48.300781 130.511719 48.195313 130.097656 C 48.089844 129.6875 48.082031 129.308594 48.152344 128.960938 C 48.230469 128.613281 48.363281 128.320313 48.554688 128.078125 C 48.839844 127.722656 49.332031 127.277344 50.011719 126.742188 Z M 52.410156 135.351563 L 58.09375 130.054688 L 59.152344 131.1875 L 57.5625 137.089844 L 61.355469 133.550781 L 62.367188 134.636719 L 56.683594 139.933594 L 55.59375 138.761719 L 57.128906 132.980469 L 53.421875 136.433594 Z M 58.261719 141.117188 L 63.460938 135.34375 L 64.644531 136.410156 L 59.445313 142.183594 Z M 62.46875 144.546875 L 64.753906 136.605469 L 66.152344 137.621094 L 64.386719 143.449219 L 69.335938 139.933594 L 70.703125 140.925781 L 63.84375 145.550781 Z M 67.109375 147.757813 L 71.109375 141.097656 L 76.128906 144.113281 L 75.453125 145.238281 L 71.800781 143.046875 L 70.910156 144.523438 L 74.308594 146.5625 L 73.636719 147.683594 L 70.238281 145.644531 L 69.148438 147.457031 L 72.929688 149.726563 L 72.253906 150.851563 Z M 73.730469 151.550781 L 76.640625 144.347656 L 79.753906 145.605469 C 80.535156 145.921875 81.082031 146.21875 81.378906 146.488281 C 81.679688 146.761719 81.878906 147.105469 81.957031 147.523438 C 82.03125 147.941406 81.984375 148.363281 81.8125 148.789063 C 81.59375 149.328125 81.253906 149.710938 80.789063 149.933594 C 80.328125 150.152344 79.753906 150.179688 79.070313 150.011719 C 79.316406 150.324219 79.503906 150.632813 79.617188 150.9375 C 79.738281 151.242188 79.859375 151.742188 79.984375 152.445313 L 80.3125 154.210938 L 78.546875 153.5 L 78.109375 151.5 C 77.960938 150.785156 77.839844 150.328125 77.757813 150.125 C 77.679688 149.921875 77.570313 149.765625 77.433594 149.644531 C 77.300781 149.527344 77.0625 149.402344 76.722656 149.261719 L 76.425781 149.144531 L 75.214844 152.148438 Z M 76.890625 147.992188 L 77.980469 148.433594 C 78.691406 148.71875 79.144531 148.871094 79.347656 148.882813 C 79.546875 148.894531 79.726563 148.851563 79.882813 148.746094 C 80.042969 148.640625 80.164063 148.484375 80.253906 148.265625 C 80.351563 148.023438 80.363281 147.800781 80.292969 147.601563 C 80.222656 147.398438 80.078125 147.230469 79.847656 147.089844 C 79.734375 147.027344 79.378906 146.875 78.78125 146.632813 L 77.628906 146.164063 Z M 81.78125 152.078125 L 83.316406 152.363281 C 83.261719 152.882813 83.339844 153.296875 83.550781 153.605469 C 83.757813 153.914063 84.09375 154.136719 84.5625 154.269531 C 85.054688 154.410156 85.460938 154.414063 85.765625 154.28125 C 86.078125 154.148438 86.269531 153.941406 86.347656 153.667969 C 86.398438 153.492188 86.390625 153.324219 86.316406 153.171875 C 86.253906 153.015625 86.097656 152.855469 85.859375 152.691406 C 85.703125 152.578125 85.320313 152.351563 84.726563 152.011719 C 83.964844 151.578125 83.460938 151.164063 83.214844 150.777344 C 82.859375 150.234375 82.773438 149.664063 82.941406 149.074219 C 83.050781 148.691406 83.261719 148.371094 83.578125 148.101563 C 83.890625 147.832031 84.277344 147.671875 84.738281 147.617188 C 85.207031 147.5625 85.726563 147.617188 86.308594 147.785156 C 87.261719 148.058594 87.917969 148.46875 88.285156 149.019531 C 88.648438 149.566406 88.742188 150.1875 88.570313 150.882813 L 87.019531 150.507813 C 87.0625 150.105469 87.003906 149.789063 86.835938 149.558594 C 86.667969 149.328125 86.367188 149.152344 85.9375 149.03125 C 85.492188 148.902344 85.113281 148.890625 84.8125 149 C 84.617188 149.066406 84.492188 149.199219 84.4375 149.390625 C 84.382813 149.570313 84.417969 149.742188 84.535156 149.910156 C 84.679688 150.125 85.101563 150.425781 85.800781 150.8125 C 86.496094 151.203125 86.996094 151.539063 87.300781 151.824219 C 87.601563 152.113281 87.808594 152.445313 87.921875 152.824219 C 88.03125 153.207031 88.015625 153.632813 87.882813 154.101563 C 87.757813 154.53125 87.523438 154.898438 87.175781 155.199219 C 86.828125 155.503906 86.40625 155.683594 85.910156 155.738281 C 85.417969 155.792969 84.839844 155.726563 84.179688 155.539063 C 83.21875 155.261719 82.546875 154.832031 82.15625 154.25 C 81.769531 153.667969 81.640625 152.941406 81.78125 152.078125 Z M 88.777344 156.605469 L 90.257813 148.976563 L 91.828125 149.28125 L 90.339844 156.90625 Z M 93.96875 157.425781 L 94.753906 151.019531 L 92.429688 150.734375 L 92.589844 149.429688 L 98.820313 150.191406 L 98.660156 151.5 L 96.339844 151.214844 L 95.554688 157.621094 Z M 101.21875 157.972656 L 101.335938 154.703125 L 98.597656 150.105469 L 100.464844 150.171875 L 102.21875 153.308594 L 104.144531 150.300781 L 105.980469 150.363281 L 102.921875 154.769531 L 102.808594 158.027344 Z M 109.03125 154.121094 C 108.878906 153.34375 108.871094 152.667969 109.003906 152.097656 C 109.105469 151.675781 109.277344 151.277344 109.523438 150.910156 C 109.765625 150.542969 110.058594 150.25 110.390625 150.03125 C 110.839844 149.734375 111.371094 149.527344 112.003906 149.402344 C 113.144531 149.179688 114.128906 149.351563 114.949219 149.914063 C 115.769531 150.476563 116.300781 151.382813 116.546875 152.621094 C 116.78125 153.855469 116.628906 154.882813 116.085938 155.710938 C 115.539063 156.539063 114.695313 157.0625 113.558594 157.285156 C 112.40625 157.507813 111.421875 157.339844 110.605469 156.78125 C 109.789063 156.222656 109.265625 155.335938 109.03125 154.121094 Z M 110.632813 153.757813 C 110.800781 154.621094 111.132813 155.234375 111.621094 155.601563 C 112.113281 155.96875 112.671875 156.089844 113.296875 155.96875 C 113.921875 155.847656 114.390625 155.527344 114.703125 155.007813 C 115.015625 154.488281 115.089844 153.785156 114.921875 152.902344 C 114.746094 152.027344 114.425781 151.414063 113.953125 151.058594 C 113.480469 150.703125 112.921875 150.589844 112.277344 150.714844 C 111.628906 150.839844 111.152344 151.160156 110.839844 151.671875 C 110.53125 152.183594 110.464844 152.878906 110.632813 153.757813 Z M 118.738281 156.128906 L 116.597656 148.660156 L 121.804688 147.167969 L 122.164063 148.429688 L 118.496094 149.484375 L 119.003906 151.25 L 122.171875 150.339844 L 122.53125 151.605469 L 119.363281 152.515625 L 120.273438 155.6875 Z M 128.699219 152.953125 L 125.445313 145.96875 L 126.886719 145.296875 L 129.59375 151.09375 L 133.183594 149.417969 L 133.738281 150.605469 Z M 141.109375 146.300781 L 139.621094 147.195313 L 138.121094 146.035156 L 135.414063 147.660156 L 135.765625 149.511719 L 134.316406 150.382813 L 132.953125 142.136719 L 134.398438 141.269531 Z M 137.011719 145.179688 L 134.59375 143.265625 L 135.164063 146.289063 Z M 143.171875 141.113281 L 142.34375 140.09375 L 145.015625 137.929688 L 146.964844 140.335938 C 146.90625 140.792969 146.703125 141.316406 146.363281 141.902344 C 146.023438 142.492188 145.601563 142.988281 145.097656 143.398438 C 144.453125 143.917969 143.789063 144.238281 143.097656 144.359375 C 142.402344 144.480469 141.738281 144.394531 141.097656 144.09375 C 140.464844 143.796875 139.90625 143.355469 139.4375 142.777344 C 138.929688 142.148438 138.609375 141.480469 138.480469 140.773438 C 138.355469 140.070313 138.441406 139.378906 138.746094 138.699219 C 138.976563 138.179688 139.386719 137.683594 139.972656 137.207031 C 140.734375 136.589844 141.460938 136.265625 142.140625 136.234375 C 142.824219 136.203125 143.449219 136.414063 144.023438 136.867188 L 142.976563 138.089844 C 142.648438 137.863281 142.296875 137.761719 141.921875 137.785156 C 141.539063 137.804688 141.175781 137.960938 140.816406 138.25 C 140.273438 138.6875 139.980469 139.207031 139.933594 139.800781 C 139.890625 140.398438 140.136719 141.027344 140.675781 141.695313 C 141.253906 142.410156 141.851563 142.816406 142.464844 142.914063 C 143.078125 143.011719 143.648438 142.84375 144.171875 142.421875 C 144.433594 142.210938 144.652344 141.949219 144.835938 141.636719 C 145.011719 141.328125 145.136719 141.023438 145.214844 140.730469 L 144.589844 139.960938 Z M 145.910156 137.644531 C 145.335938 137.105469 144.925781 136.566406 144.699219 136.023438 C 144.535156 135.621094 144.441406 135.199219 144.421875 134.757813 C 144.402344 134.316406 144.464844 133.910156 144.605469 133.535156 C 144.796875 133.035156 145.105469 132.550781 145.546875 132.082031 C 146.339844 131.230469 147.230469 130.792969 148.226563 130.765625 C 149.222656 130.738281 150.183594 131.15625 151.105469 132.019531 C 152.027344 132.875 152.503906 133.796875 152.550781 134.789063 C 152.597656 135.777344 152.222656 136.695313 151.433594 137.542969 C 150.632813 138.402344 149.738281 138.84375 148.753906 138.871094 C 147.761719 138.898438 146.816406 138.488281 145.910156 137.644531 Z M 146.992188 136.410156 C 147.636719 137.007813 148.265625 137.3125 148.878906 137.320313 C 149.492188 137.328125 150.015625 137.097656 150.449219 136.632813 C 150.882813 136.167969 151.074219 135.632813 151.019531 135.027344 C 150.96875 134.421875 150.613281 133.8125 149.960938 133.199219 C 149.304688 132.59375 148.683594 132.285156 148.09375 132.273438 C 147.503906 132.265625 146.980469 132.503906 146.535156 132.984375 C 146.089844 133.464844 145.886719 134.003906 145.9375 134.601563 C 145.988281 135.195313 146.339844 135.796875 146.992188 136.410156 Z M 152.773438 132.230469 L 153.609375 130.917969 C 154.074219 131.160156 154.484375 131.242188 154.851563 131.164063 C 155.214844 131.085938 155.546875 130.859375 155.847656 130.476563 C 156.160156 130.070313 156.316406 129.699219 156.308594 129.363281 C 156.296875 129.027344 156.183594 128.769531 155.960938 128.59375 C 155.8125 128.480469 155.65625 128.429688 155.484375 128.4375 C 155.316406 128.441406 155.109375 128.523438 154.867188 128.679688 C 154.703125 128.789063 154.351563 129.054688 153.816406 129.476563 C 153.128906 130.023438 152.550781 130.335938 152.101563 130.421875 C 151.464844 130.539063 150.90625 130.410156 150.421875 130.03125 C 150.109375 129.789063 149.890625 129.472656 149.757813 129.078125 C 149.628906 128.6875 149.621094 128.265625 149.742188 127.816406 C 149.867188 127.367188 150.113281 126.90625 150.488281 126.425781 C 151.097656 125.644531 151.726563 125.191406 152.371094 125.058594 C 153.015625 124.925781 153.628906 125.070313 154.210938 125.492188 L 153.28125 126.789063 C 152.921875 126.597656 152.605469 126.535156 152.335938 126.605469 C 152.054688 126.671875 151.777344 126.886719 151.503906 127.238281 C 151.21875 127.605469 151.066406 127.949219 151.054688 128.269531 C 151.046875 128.476563 151.117188 128.640625 151.277344 128.765625 C 151.421875 128.878906 151.59375 128.914063 151.796875 128.871094 C 152.050781 128.8125 152.488281 128.535156 153.105469 128.035156 C 153.726563 127.535156 154.226563 127.195313 154.605469 127.023438 C 154.988281 126.847656 155.371094 126.78125 155.765625 126.820313 C 156.160156 126.859375 156.546875 127.03125 156.933594 127.335938 C 157.285156 127.609375 157.539063 127.964844 157.6875 128.402344 C 157.839844 128.839844 157.847656 129.296875 157.714844 129.773438 C 157.585938 130.253906 157.300781 130.765625 156.878906 131.304688 C 156.265625 132.089844 155.613281 132.554688 154.925781 132.699219 C 154.238281 132.839844 153.519531 132.683594 152.773438 132.230469 Z M 152.773438 132.230469 "/>
<path style=" stroke:none;fill-rule:evenodd;fill:rgb(0%,33.714294%,63.867188%);fill-opacity:1;" d="M 102.835938 19.273438 C 122.53125 19.273438 140.363281 27.257813 153.273438 40.167969 C 166.179688 53.074219 174.164063 70.90625 174.164063 90.605469 C 174.164063 110.300781 166.179688 128.132813 153.273438 141.042969 C 140.363281 153.949219 122.53125 161.933594 102.835938 161.933594 C 83.136719 161.933594 65.304688 153.949219 52.394531 141.042969 C 39.488281 128.132813 31.503906 110.300781 31.503906 90.605469 C 31.503906 70.90625 39.488281 53.074219 52.394531 40.167969 C 65.304688 27.257813 83.136719 19.273438 102.835938 19.273438 Z M 151.777344 41.660156 C 139.253906 29.136719 121.949219 21.390625 102.835938 21.390625 C 83.71875 21.390625 66.417969 29.136719 53.890625 41.660156 C 41.367188 54.1875 33.617188 71.492188 33.617188 90.605469 C 33.617188 109.71875 41.367188 127.023438 53.890625 139.546875 C 66.417969 152.074219 83.71875 159.820313 102.835938 159.820313 C 121.949219 159.820313 139.253906 152.074219 151.777344 139.546875 C 164.300781 127.023438 172.050781 109.71875 172.050781 90.605469 C 172.050781 71.492188 164.300781 54.1875 151.777344 41.660156 Z M 151.777344 41.660156 "/>
<path style=" stroke:none;fill-rule:evenodd;fill:rgb(0%,33.714294%,63.867188%);fill-opacity:1;" d="M 46.863281 160.171875 L 51.601563 153.882813 L 52.871094 154.839844 L 48.132813 161.128906 Z M 49.316406 162.066406 L 53.945313 155.699219 L 55.203125 156.605469 L 54.714844 162.753906 L 57.804688 158.5 L 59.003906 159.371094 L 54.371094 165.742188 L 53.085938 164.800781 L 53.53125 158.78125 L 50.511719 162.9375 Z M 59.910156 159.867188 L 62.398438 161.367188 C 62.964844 161.703125 63.363281 162 63.605469 162.265625 C 63.933594 162.621094 64.148438 163.03125 64.253906 163.5 C 64.351563 163.964844 64.347656 164.460938 64.238281 164.980469 C 64.128906 165.5 63.878906 166.074219 63.503906 166.707031 C 63.164063 167.261719 62.808594 167.699219 62.429688 168.019531 C 61.964844 168.410156 61.488281 168.660156 60.988281 168.777344 C 60.617188 168.867188 60.1875 168.851563 59.714844 168.742188 C 59.351563 168.65625 58.921875 168.460938 58.417969 168.160156 L 55.851563 166.617188 Z M 60.589844 161.832031 L 57.898438 166.300781 L 58.917969 166.910156 C 59.296875 167.136719 59.585938 167.285156 59.78125 167.339844 C 60.03125 167.417969 60.273438 167.4375 60.496094 167.390625 C 60.722656 167.347656 60.972656 167.199219 61.246094 166.953125 C 61.519531 166.707031 61.8125 166.324219 62.128906 165.800781 C 62.441406 165.277344 62.632813 164.851563 62.714844 164.515625 C 62.785156 164.179688 62.789063 163.886719 62.71875 163.632813 C 62.644531 163.375 62.496094 163.140625 62.277344 162.933594 C 62.113281 162.777344 61.753906 162.53125 61.195313 162.199219 Z M 62.746094 170.496094 L 65.953125 163.300781 L 71.28125 165.675781 L 70.742188 166.894531 L 66.859375 165.164063 L 66.148438 166.757813 L 69.761719 168.367188 L 69.222656 169.578125 L 65.609375 167.96875 L 64.738281 169.929688 L 68.757813 171.71875 L 68.21875 172.929688 Z M 69.453125 173.507813 L 72.011719 166.0625 L 77.53125 167.964844 L 77.097656 169.226563 L 73.085938 167.84375 L 72.511719 169.492188 L 76.253906 170.777344 L 75.820313 172.03125 L 72.085938 170.746094 L 71.382813 172.773438 L 75.542969 174.203125 L 75.109375 175.457031 Z M 78.632813 168.320313 L 81.425781 169.121094 C 82.054688 169.300781 82.523438 169.484375 82.828125 169.675781 C 83.230469 169.933594 83.546875 170.277344 83.765625 170.703125 C 83.988281 171.125 84.113281 171.605469 84.136719 172.132813 C 84.164063 172.664063 84.078125 173.285156 83.871094 173.996094 C 83.695313 174.617188 83.464844 175.132813 83.175781 175.539063 C 82.835938 176.035156 82.433594 176.402344 81.984375 176.644531 C 81.644531 176.828125 81.230469 176.925781 80.738281 176.941406 C 80.371094 176.949219 79.902344 176.875 79.339844 176.710938 L 76.464844 175.886719 Z M 79.792969 170.039063 L 78.355469 175.050781 L 79.496094 175.375 C 79.925781 175.5 80.238281 175.566406 80.445313 175.570313 C 80.710938 175.578125 80.945313 175.535156 81.148438 175.433594 C 81.355469 175.332031 81.558594 175.125 81.761719 174.816406 C 81.964844 174.507813 82.144531 174.058594 82.3125 173.472656 C 82.480469 172.890625 82.554688 172.425781 82.542969 172.082031 C 82.53125 171.738281 82.460938 171.453125 82.320313 171.226563 C 82.183594 170.996094 81.980469 170.808594 81.714844 170.667969 C 81.515625 170.554688 81.105469 170.414063 80.480469 170.234375 Z M 93.691406 179.382813 L 91.976563 179.171875 L 91.511719 177.308594 L 88.386719 176.925781 L 87.523438 178.625 L 85.851563 178.417969 L 89.855469 170.976563 L 91.523438 171.179688 Z M 91.167969 175.933594 L 90.445313 172.898438 L 89.035156 175.671875 Z M 94.605469 179.480469 L 95.292969 171.636719 L 96.839844 171.769531 L 99.589844 177.289063 L 100.046875 172.050781 L 101.515625 172.179688 L 100.835938 180.023438 L 99.238281 179.886719 L 96.527344 174.492188 L 96.082031 179.609375 Z M 102.121094 172.054688 L 105.019531 171.902344 C 105.675781 171.867188 106.175781 171.890625 106.523438 171.972656 C 106.992188 172.085938 107.402344 172.304688 107.746094 172.636719 C 108.09375 172.964844 108.367188 173.375 108.566406 173.867188 C 108.761719 174.363281 108.882813 174.976563 108.921875 175.714844 C 108.953125 176.363281 108.902344 176.925781 108.765625 177.402344 C 108.601563 177.984375 108.34375 178.460938 107.996094 178.832031 C 107.738281 179.117188 107.378906 179.34375 106.914063 179.519531 C 106.570313 179.648438 106.105469 179.730469 105.519531 179.761719 L 102.53125 179.917969 Z M 103.777344 173.300781 L 104.050781 178.507813 L 105.234375 178.445313 C 105.675781 178.421875 105.996094 178.382813 106.191406 178.320313 C 106.445313 178.242188 106.652344 178.125 106.816406 177.960938 C 106.976563 177.796875 107.101563 177.535156 107.191406 177.179688 C 107.277344 176.824219 107.308594 176.339844 107.277344 175.730469 C 107.246094 175.121094 107.164063 174.660156 107.046875 174.339844 C 106.921875 174.019531 106.753906 173.773438 106.550781 173.601563 C 106.347656 173.429688 106.097656 173.320313 105.796875 173.269531 C 105.570313 173.230469 105.136719 173.230469 104.488281 173.261719 Z M 113.484375 179.207031 L 112.523438 171.390625 L 114.101563 171.199219 L 115.0625 179.011719 Z M 116.484375 178.8125 L 114.980469 171.082031 L 116.503906 170.789063 L 120.671875 175.335938 L 119.664063 170.171875 L 121.113281 169.890625 L 122.617188 177.621094 L 121.050781 177.925781 L 116.953125 173.488281 L 117.933594 178.53125 Z M 128.992188 176 L 126.753906 169.851563 L 124.558594 170.652344 L 124.101563 169.398438 L 129.980469 167.257813 L 130.4375 168.511719 L 128.253906 169.308594 L 130.484375 175.453125 Z M 133.601563 174.390625 L 130.78125 167.039063 L 133.90625 165.839844 C 134.691406 165.539063 135.289063 165.386719 135.695313 165.378906 C 136.101563 165.375 136.476563 165.5 136.820313 165.753906 C 137.164063 166.011719 137.421875 166.355469 137.589844 166.792969 C 137.796875 167.34375 137.808594 167.863281 137.628906 168.34375 C 137.4375 168.828125 137.039063 169.242188 136.429688 169.582031 C 136.824219 169.648438 137.171875 169.75 137.464844 169.894531 C 137.757813 170.039063 138.191406 170.328125 138.765625 170.761719 L 140.214844 171.851563 L 138.4375 172.535156 L 136.753906 171.34375 C 136.148438 170.921875 135.753906 170.660156 135.554688 170.566406 C 135.355469 170.472656 135.171875 170.425781 134.988281 170.429688 C 134.8125 170.4375 134.554688 170.503906 134.214844 170.636719 L 133.910156 170.75 L 135.089844 173.820313 Z M 133.464844 169.578125 L 134.558594 169.15625 C 135.269531 168.882813 135.703125 168.683594 135.859375 168.554688 C 136.011719 168.425781 136.109375 168.269531 136.15625 168.082031 C 136.199219 167.898438 136.179688 167.695313 136.09375 167.472656 C 136.003906 167.226563 135.855469 167.054688 135.664063 166.953125 C 135.476563 166.847656 135.253906 166.824219 134.996094 166.875 C 134.867188 166.90625 134.503906 167.039063 133.902344 167.269531 L 132.746094 167.710938 Z M 137.378906 164.332031 L 138.796875 163.613281 L 140.726563 167.410156 C 141.035156 168.015625 141.253906 168.398438 141.378906 168.558594 C 141.589844 168.816406 141.847656 168.972656 142.164063 169.027344 C 142.480469 169.085938 142.839844 169.015625 143.230469 168.8125 C 143.632813 168.609375 143.894531 168.371094 144.015625 168.101563 C 144.136719 167.835938 144.15625 167.570313 144.074219 167.3125 C 143.996094 167.050781 143.8125 166.640625 143.53125 166.085938 L 141.550781 162.207031 L 142.96875 161.484375 L 144.847656 165.167969 C 145.277344 166.011719 145.539063 166.625 145.640625 167.011719 C 145.742188 167.398438 145.753906 167.765625 145.671875 168.109375 C 145.585938 168.453125 145.402344 168.785156 145.132813 169.101563 C 144.859375 169.417969 144.445313 169.71875 143.890625 170 C 143.222656 170.34375 142.671875 170.523438 142.253906 170.546875 C 141.824219 170.566406 141.449219 170.503906 141.121094 170.359375 C 140.796875 170.21875 140.53125 170.023438 140.328125 169.785156 C 140.03125 169.429688 139.683594 168.863281 139.28125 168.078125 Z M 149.578125 166.789063 L 146.015625 161.300781 L 144.054688 162.574219 L 143.328125 161.457031 L 148.578125 158.046875 L 149.304688 159.164063 L 147.347656 160.433594 L 150.910156 165.921875 Z M 153.691406 164.085938 L 149.0625 157.714844 L 150.347656 156.78125 L 152.171875 159.285156 L 154.691406 157.457031 L 152.867188 154.949219 L 154.15625 154.015625 L 158.78125 160.386719 L 157.496094 161.320313 L 155.472656 158.535156 L 152.953125 160.363281 L 154.976563 163.148438 Z M 153.691406 164.085938 "/>
<g clip-path="url(#clip1)" clip-rule="nonzero">
<path style="fill:none;stroke-width:2;stroke-linecap:butt;stroke-linejoin:miter;stroke:rgb(0%,0%,0%);stroke-opacity:1;stroke-miterlimit:4;" d="M 1.523438 1.773438 L 2058.007813 1.773438 L 2058.007813 2058.21875 L 1.523438 2058.21875 Z M 1.523438 1.773438 " transform="matrix(0.1,0,0,-0.1,0,205.9)"/>
</g>
</g>
</svg>
